<svg xmlns="http://www.w3.org/2000/svg" viewBox="0 0 32 32">
  <defs>
    <linearGradient id="g" x1="0%" y1="0%" x2="100%" y2="100%">
      <stop offset="0%" stop-color="#8b5cf6"/>
      <stop offset="100%" stop-color="#7c3aed"/>
    </linearGradient>
  </defs>
  <rect width="32" height="32" rx="8" fill="url(#g)"/>
  <path d="M16 10v11m0-11V9a1.5 1.5 0 113 0 1.5 1.5 0 01-1.5 1.5H16zm0 0v-1.5A2 2 0 1012 10h4zm-5.5 3h11M10.5 13a1.5 1.5 0 110-3h11a1.5 1.5 0 110 3M10.5 13v5.5a1.5 1.5 0 001.5 1.5h8a1.5 1.5 0 001.5-1.5V13" fill="none" stroke="white" stroke-width="1.5" stroke-linecap="round" stroke-linejoin="round"/>
</svg>
